<svg width="44" height="59" viewBox="0 0 55 59" fill="none" xmlns="http://www.w3.org/2000/svg">
<g id="Group 303">
<path id="Vector" d="M22.596 0H21.3862V1.2091H22.596V0Z" fill="#fff"/>
<path id="Vector_2" d="M25.2998 0H24.0901V1.2091H25.2998V0Z" fill="#fff"/>
<path id="Vector_3" d="M28.0059 0H26.7961V1.2091H28.0059V0Z" fill="#fff"/>
<path id="Vector_4" d="M30.7251 0H29.5154V1.2091H30.7251V0Z" fill="#fff"/>
<path id="Vector_5" d="M33.4312 0H32.2214V1.2091H33.4312V0Z" fill="#fff"/>
<path id="Vector_6" d="M33.0014 2.0412H21.8276V2.91227H33.0014V2.0412Z" fill="#fff"/>
<path id="Vector_7" d="M20.0589 13.6512C20.176 13.6512 20.2931 13.6512 20.3451 13.6642C20.3971 13.6772 20.4882 13.7422 20.5402 13.8072C20.5922 13.8722 20.6963 14.0152 20.7353 14.0542C20.7743 14.0932 20.8134 14.1062 20.8264 14.1322C20.8394 14.1582 20.9174 14.2492 20.9434 14.2752C20.9565 14.3012 20.9825 14.3142 20.9825 14.3142C20.9825 14.3142 20.9825 14.2622 21.0215 14.2752C21.0605 14.2882 21.1386 14.3792 21.1516 14.3922C21.1646 14.4052 21.2686 14.5482 21.3077 14.6132C21.3337 14.6782 21.4898 14.8993 21.5158 14.9383C21.5418 14.9643 21.5808 15.0163 21.5808 15.0163C21.5808 15.0163 21.5808 14.9643 21.6199 15.0033C21.6589 15.0293 21.841 15.2373 21.906 15.2763C21.9711 15.3153 22.1011 15.3933 22.1532 15.4323C22.2182 15.4713 22.3873 15.5493 22.5434 15.6143C22.6995 15.6663 22.8556 15.7053 22.9336 15.7703C23.0117 15.8223 23.1027 15.9393 23.1418 15.9653C23.1808 15.9913 23.2588 16.0694 23.2718 16.0954C23.2718 16.0954 23.2198 16.1734 23.1418 16.2774C23.0767 16.2774 23.0247 16.2774 22.9987 16.2774C22.9466 16.2644 22.9206 16.2514 22.9076 16.2514C22.9076 16.2514 22.8816 16.2514 22.8686 16.2514C22.8426 16.2514 22.7515 16.2514 22.7255 16.3684C22.7255 16.3684 22.7645 16.3294 22.8166 16.3164C22.8166 16.3294 22.8166 16.3554 22.8166 16.3684C22.8556 16.4204 22.8556 16.4074 22.8946 16.3944C22.9206 16.3944 22.9597 16.3944 22.9987 16.3944C22.9727 16.4204 22.9597 16.4464 22.9336 16.4594C22.9336 16.4594 22.9336 16.4594 22.9206 16.4594C22.9206 16.4594 22.8036 16.4334 22.7775 16.5504C22.7775 16.5504 22.8036 16.5374 22.8296 16.5244C22.8296 16.5244 22.8296 16.5504 22.8296 16.5634C22.8296 16.5634 22.8036 16.5764 22.7906 16.5894C22.7125 16.6414 22.6084 16.7194 22.6084 16.7194C22.6084 16.7194 22.4784 16.7324 22.4524 16.7194C22.4393 16.7064 22.3613 16.5894 22.2963 16.5764C22.2832 16.5764 22.2572 16.5764 22.2572 16.5764C22.2312 16.5764 22.1532 16.5764 22.1532 16.6674C22.1532 16.6674 22.1922 16.6284 22.2312 16.6284C22.2312 16.6544 22.2312 16.6934 22.2832 16.7194C22.2832 16.7194 22.3223 16.7194 22.3613 16.7454C22.4003 16.7714 22.4003 16.7844 22.4003 16.7844C22.4003 16.7844 22.4524 16.7974 22.4393 16.8104C22.4393 16.8104 22.3353 16.8494 22.2832 16.8234C22.2702 16.8234 22.2442 16.8234 22.2312 16.8234C22.2182 16.8234 22.0491 16.7974 22.0231 16.7844C21.9841 16.7844 21.841 16.7844 21.828 16.7844C21.828 16.7844 21.815 16.7844 21.802 16.7844C21.7629 16.7844 21.6849 16.8234 21.6979 16.9274C21.6979 16.9274 21.7369 16.8494 21.789 16.8364C21.789 16.8624 21.815 16.8884 21.854 16.9144C21.88 16.9274 21.893 16.9144 21.919 16.9144C21.945 16.9144 21.9841 16.9404 22.0231 16.9274C22.0491 16.9274 22.1922 16.9014 22.2182 16.9014C22.2572 16.9014 22.3743 16.9014 22.3873 16.9274C22.3873 16.9664 22.3223 16.9924 22.3223 17.0054C22.3223 17.0184 22.3093 17.0184 22.3093 17.0184C22.3093 17.0184 22.2572 17.0184 22.1922 17.0444C22.1272 17.0704 22.0101 17.0964 21.9841 17.0964C21.9581 17.0964 21.932 17.0964 21.919 17.1094C21.919 17.1094 21.893 17.1224 21.893 17.1354C21.867 17.1484 21.815 17.1874 21.815 17.2785C21.815 17.2785 21.841 17.2395 21.88 17.2265C21.88 17.2395 21.88 17.2525 21.906 17.2525C21.9581 17.2655 21.9841 17.2525 21.9971 17.2525C22.0101 17.2525 22.0881 17.2134 22.1141 17.2004C22.1402 17.2004 22.2442 17.1484 22.2832 17.1354C22.3223 17.1354 22.4003 17.0834 22.4263 17.0834C22.4524 17.0834 22.5694 17.0184 22.6215 17.0054C22.6735 16.9924 22.6735 16.9794 22.6735 16.9794C22.6735 16.9794 22.7515 16.9794 22.8296 16.9664C22.9076 16.9404 22.9857 16.9534 23.0117 16.9664C23.0377 16.9664 23.0897 16.9924 23.1548 16.9924C23.2068 16.9924 23.3499 16.9924 23.3759 16.9924C23.4019 16.9924 23.4409 16.9794 23.454 16.9534C23.454 16.9534 23.48 16.9144 23.48 16.8754C23.519 16.9014 23.545 16.9664 23.545 16.9664C23.558 16.8624 23.506 16.8234 23.454 16.8234C23.454 16.8234 23.4409 16.8234 23.4279 16.8234C23.3499 16.8234 23.2588 16.8754 23.2328 16.8884C23.2068 16.8884 23.0767 16.8624 23.0377 16.8364C22.9987 16.8104 22.9857 16.7324 22.9857 16.6804C22.9857 16.6804 23.0117 16.6414 23.0637 16.5764C23.1027 16.5764 23.1418 16.5764 23.1678 16.5764C23.2198 16.5764 23.2328 16.5504 23.2849 16.5374C23.3369 16.5374 23.454 16.4724 23.48 16.4724C23.506 16.4724 23.545 16.4724 23.571 16.4724C23.597 16.4724 23.6751 16.4984 23.7011 16.5114C23.7401 16.5114 23.9222 16.5634 23.9873 16.5894C24.0523 16.6154 24.1434 16.6544 24.1564 16.6544C24.1694 16.6544 24.2214 16.6414 24.2214 16.5894C24.2604 16.6154 24.2995 16.6674 24.2995 16.6674C24.3125 16.5374 24.2474 16.5114 24.2084 16.5114C24.1824 16.4984 24.1434 16.5114 24.1174 16.5114C24.0783 16.5114 24.0393 16.5114 24.0263 16.5114C24.0003 16.5114 23.9482 16.4464 23.9092 16.4334C23.8702 16.4204 23.8182 16.3424 23.8052 16.3164C23.7922 16.2904 23.8052 16.2644 23.8182 16.2384C23.8312 16.2124 23.9743 16.0174 24.0133 15.9523C24.0523 15.8873 24.0523 15.8743 24.0913 15.8743C24.1304 15.8743 24.2474 15.8743 24.3125 15.8743C24.3775 15.8743 24.4295 15.8743 24.4816 15.9003C24.5336 15.9263 24.6247 15.9913 24.6767 16.0174C24.7157 16.0434 25.0019 16.3424 25.0539 16.3944C25.1059 16.4464 25.4311 16.7454 25.5222 16.7844C25.6002 16.8234 25.6783 16.8364 25.7824 16.8494C25.8734 16.8754 26.0555 16.9274 26.0945 16.9274C26.1466 16.9274 26.3287 16.9794 26.3937 16.9794C26.4588 16.9794 26.5498 16.9794 26.6279 17.0054C26.7059 17.0314 26.7059 17.0444 26.7189 17.0444C26.7319 17.0444 26.823 17.0184 26.862 16.9924C26.901 16.9664 26.9661 16.9144 26.94 16.8234C26.914 16.7324 26.901 16.5374 26.862 16.4854C26.823 16.4334 26.6539 16.2124 26.6018 16.1864C26.5498 16.1604 26.3157 15.9913 26.2636 15.9523C26.2116 15.9133 26.1466 15.8223 26.1466 15.8223C26.1466 15.8223 26.4718 15.8613 26.5498 15.8743C26.6279 15.8873 26.6669 15.8483 26.6669 15.8483C26.6669 15.8483 26.6409 15.8223 26.5498 15.7573C26.4588 15.6923 25.9645 15.3803 25.9124 15.3543C25.8604 15.3283 25.7043 15.2503 25.7043 15.2503C25.7043 15.2503 25.5482 15.0553 25.5092 15.0033C25.4572 14.9513 25.5092 14.9383 25.5092 14.9383C25.5092 14.9383 25.2881 14.7042 25.249 14.6782C25.21 14.6522 25.249 14.6392 25.249 14.6392C25.249 14.6392 24.9499 14.3402 24.9108 14.3272C24.8718 14.3012 24.8978 14.2752 24.8978 14.2752C24.8978 14.2752 24.5466 14.0022 24.5076 13.9762C24.4686 13.9502 23.8962 13.6512 23.7922 13.6122C23.6881 13.5731 23.3109 13.4171 23.0247 13.3521C22.7385 13.2871 22.6215 13.3911 22.2052 13.3131C21.5158 13.1831 21.5548 12.9491 21.0085 12.9491C20.8914 12.9491 20.7353 12.9881 20.6573 13.0271C20.5792 13.0661 20.5142 13.0921 20.5142 13.0921C20.5142 13.0921 20.4491 13.1831 20.3321 13.2091C20.0719 13.2611 19.8118 13.3001 19.5776 13.5341C19.5386 13.5731 19.5516 13.5992 19.6036 13.5992C19.6557 13.5992 19.9679 13.6382 20.0849 13.6382L20.0589 13.6512ZM23.493 16.2124C23.493 16.2124 23.558 16.1604 23.584 16.1474C23.61 16.1474 23.6361 16.1214 23.6231 16.0824C23.6231 16.0434 23.6231 16.0434 23.61 16.0043C23.61 15.9783 23.61 15.9653 23.61 15.9393C23.597 15.9133 23.584 15.8743 23.61 15.8613C23.6361 15.8613 23.6491 15.8873 23.6751 15.8613C23.7011 15.8613 23.7011 15.8353 23.7141 15.8353C23.7271 15.8353 23.7401 15.8483 23.7661 15.8353C23.7922 15.8353 23.8442 15.8093 23.8572 15.8093C23.8572 15.8093 23.8572 15.8483 23.8572 15.8743C23.8442 15.9003 23.7141 16.0824 23.6621 16.1344C23.61 16.1864 23.545 16.2384 23.454 16.2514C23.4409 16.2514 23.4149 16.2514 23.3889 16.2514C23.4149 16.2254 23.454 16.2124 23.493 16.1864V16.2124Z" fill="#fff"/>
<path id="Vector_8" d="M28.5389 19.8265C28.656 19.8265 28.773 19.8265 28.8251 19.8395C28.8771 19.8525 28.9681 19.9175 29.0202 19.9825C29.0722 20.0475 29.1763 20.1905 29.2153 20.2295C29.2543 20.2685 29.2933 20.2815 29.3064 20.3075C29.3194 20.3336 29.3974 20.4246 29.4234 20.4506C29.4364 20.4766 29.4624 20.4896 29.4624 20.4896C29.4624 20.4896 29.4624 20.4376 29.5015 20.4506C29.5405 20.4636 29.6185 20.5546 29.6315 20.5676C29.6446 20.5806 29.7486 20.7236 29.7876 20.7886C29.8137 20.8536 29.9698 21.0746 29.9958 21.1136C30.0218 21.1396 30.0608 21.1916 30.0608 21.1916C30.0608 21.1916 30.0608 21.1396 30.0998 21.1786C30.1389 21.2046 30.321 21.4126 30.386 21.4516C30.451 21.4906 30.5811 21.5687 30.6332 21.6077C30.6982 21.6467 30.8673 21.7247 31.0234 21.7897C31.1795 21.8417 31.3356 21.8807 31.4136 21.9457C31.4917 21.9977 31.5827 22.1147 31.6217 22.1407C31.6608 22.1667 31.7388 22.2447 31.7518 22.2707C31.7518 22.2707 31.6998 22.3487 31.6217 22.4527C31.5567 22.4527 31.5047 22.4527 31.4787 22.4527C31.4266 22.4397 31.4006 22.4267 31.3876 22.4267C31.3876 22.4267 31.3616 22.4267 31.3486 22.4267C31.3226 22.4267 31.2315 22.4267 31.2055 22.5437C31.2055 22.5437 31.2445 22.5047 31.2965 22.4917C31.2965 22.5047 31.2965 22.5307 31.2965 22.5437C31.3356 22.5957 31.3356 22.5827 31.3746 22.5697C31.4006 22.5697 31.4396 22.5697 31.4787 22.5697C31.4526 22.5957 31.4396 22.6217 31.4136 22.6347C31.4136 22.6347 31.4136 22.6347 31.4006 22.6347C31.4006 22.6347 31.2835 22.6087 31.2575 22.7257C31.2575 22.7257 31.2835 22.7127 31.3096 22.6997C31.3096 22.6997 31.3096 22.7257 31.3096 22.7387C31.3096 22.7387 31.2835 22.7518 31.2705 22.7648C31.1925 22.8168 31.0884 22.8948 31.0884 22.8948C31.0884 22.8948 30.9583 22.9078 30.9323 22.8948C30.9193 22.8818 30.8413 22.7648 30.7762 22.7518C30.7632 22.7518 30.7372 22.7518 30.7372 22.7518C30.7112 22.7518 30.6332 22.7518 30.6332 22.8428C30.6332 22.8428 30.6722 22.8038 30.7112 22.8038C30.7112 22.8298 30.7112 22.8688 30.7632 22.8948C30.7632 22.8948 30.8023 22.8948 30.8413 22.9208C30.8803 22.9468 30.8803 22.9598 30.8803 22.9598C30.8803 22.9598 30.9323 22.9728 30.9193 22.9858C30.9193 22.9858 30.8153 23.0248 30.7632 22.9988C30.7502 22.9988 30.7242 22.9988 30.7112 22.9988C30.6982 22.9988 30.5291 22.9728 30.5031 22.9598C30.4641 22.9598 30.321 22.9598 30.308 22.9598C30.308 22.9598 30.2949 22.9598 30.2819 22.9598C30.2429 22.9598 30.1649 22.9988 30.1779 23.1028C30.1779 23.1028 30.2169 23.0248 30.2689 23.0118C30.2689 23.0378 30.2949 23.0638 30.334 23.0898C30.36 23.1028 30.373 23.0898 30.399 23.0898C30.425 23.0898 30.4641 23.1158 30.5031 23.1028C30.5291 23.1028 30.6722 23.0768 30.6982 23.0768C30.7372 23.0768 30.8543 23.0768 30.8673 23.1028C30.8673 23.1418 30.8023 23.1678 30.8023 23.1808C30.8023 23.1938 30.7892 23.1938 30.7892 23.1938C30.7892 23.1938 30.7372 23.1938 30.6722 23.2198C30.6071 23.2458 30.4901 23.2718 30.464 23.2718C30.438 23.2718 30.412 23.2718 30.399 23.2848C30.399 23.2848 30.373 23.2978 30.373 23.3108C30.347 23.3238 30.2949 23.3628 30.2949 23.4538C30.2949 23.4538 30.321 23.4148 30.36 23.4018C30.36 23.4148 30.36 23.4278 30.386 23.4278C30.438 23.4408 30.4641 23.4278 30.4771 23.4278C30.4901 23.4278 30.5681 23.3888 30.5941 23.3758C30.6201 23.3758 30.7242 23.3238 30.7632 23.3108C30.8023 23.3108 30.8803 23.2588 30.9063 23.2588C30.9323 23.2588 31.0494 23.1938 31.1014 23.1808C31.1535 23.1678 31.1535 23.1548 31.1535 23.1548C31.1535 23.1548 31.2315 23.1548 31.3096 23.1418C31.3876 23.1158 31.4657 23.1288 31.4917 23.1418C31.5177 23.1418 31.5697 23.1678 31.6348 23.1678C31.6868 23.1678 31.8299 23.1678 31.8559 23.1678C31.8819 23.1678 31.9209 23.1548 31.9339 23.1288C31.9339 23.1288 31.9599 23.0898 31.9599 23.0508C31.999 23.0768 32.025 23.1418 32.025 23.1418C32.038 23.0378 31.986 22.9988 31.9339 22.9988C31.9339 22.9988 31.9209 22.9988 31.9079 22.9988C31.8299 22.9988 31.7388 23.0508 31.7128 23.0638C31.6868 23.0638 31.5567 23.0378 31.5177 23.0118C31.4787 22.9858 31.4657 22.9078 31.4657 22.8558C31.4657 22.8558 31.4917 22.8168 31.5437 22.7518C31.5827 22.7518 31.6217 22.7518 31.6478 22.7518C31.6998 22.7518 31.7128 22.7257 31.7648 22.7127C31.8169 22.7127 31.9339 22.6477 31.9599 22.6477C31.986 22.6477 32.025 22.6477 32.051 22.6477C32.077 22.6477 32.1551 22.6737 32.1811 22.6867C32.2201 22.6867 32.4022 22.7387 32.4673 22.7648C32.5323 22.7908 32.6233 22.8298 32.6364 22.8298C32.6494 22.8298 32.7014 22.8168 32.7014 22.7648C32.7404 22.7908 32.7794 22.8428 32.7794 22.8428C32.7925 22.7127 32.7274 22.6867 32.6884 22.6867C32.6624 22.6737 32.6233 22.6867 32.5973 22.6867C32.5583 22.6867 32.5193 22.6867 32.5063 22.6867C32.4803 22.6867 32.4282 22.6217 32.3892 22.6087C32.3502 22.5957 32.2982 22.5177 32.2851 22.4917C32.2721 22.4657 32.2851 22.4397 32.2982 22.4137C32.3112 22.3877 32.4542 22.1927 32.4933 22.1277C32.5323 22.0627 32.5323 22.0497 32.5713 22.0497C32.6103 22.0497 32.7274 22.0497 32.7924 22.0497C32.8575 22.0497 32.9095 22.0497 32.9616 22.0757C33.0136 22.1017 33.1046 22.1667 33.1567 22.1927C33.1957 22.2187 33.4819 22.5177 33.5339 22.5697C33.5859 22.6217 33.9111 22.9208 34.0022 22.9598C34.0802 22.9988 34.1583 23.0118 34.2623 23.0248C34.3534 23.0508 34.5355 23.0898 34.5745 23.1028C34.6266 23.1028 34.8087 23.1548 34.8737 23.1548C34.9387 23.1548 35.0298 23.1548 35.1078 23.1808C35.1859 23.2068 35.1859 23.2198 35.1989 23.2198C35.2119 23.2198 35.303 23.1938 35.342 23.1678C35.381 23.1418 35.446 23.0898 35.42 22.9988C35.394 22.9078 35.381 22.7127 35.342 22.6607C35.303 22.6087 35.1339 22.3877 35.0818 22.3617C35.0298 22.3357 34.7957 22.1667 34.7436 22.1277C34.6916 22.0887 34.6266 21.9977 34.6266 21.9977C34.6266 21.9977 34.9517 22.0367 35.0298 22.0497C35.1078 22.0627 35.1469 22.0237 35.1469 22.0237C35.1469 22.0237 35.1209 21.9977 35.0298 21.9327C34.9387 21.8677 34.4444 21.5557 34.3924 21.5296C34.3404 21.5036 34.1843 21.4256 34.1843 21.4256C34.1843 21.4256 34.0282 21.2306 33.9892 21.1786C33.9371 21.1266 33.9892 21.1136 33.9892 21.1136C33.9892 21.1136 33.781 20.8796 33.729 20.8536C33.69 20.8276 33.729 20.8146 33.729 20.8146C33.729 20.8146 33.4298 20.5156 33.3908 20.5026C33.3518 20.4766 33.3778 20.4506 33.3778 20.4506C33.3778 20.4506 33.0136 20.1775 32.9876 20.1515C32.9485 20.1255 32.3762 19.8265 32.2721 19.7875C32.1681 19.7485 31.7908 19.5925 31.5047 19.5275C31.2185 19.4625 31.1014 19.5665 30.6852 19.4885C29.9958 19.3585 30.0348 19.1245 29.4885 19.1245C29.3714 19.1245 29.2153 19.1635 29.1373 19.2025C29.0592 19.2415 28.9942 19.2675 28.9942 19.2675C28.9942 19.2675 28.9291 19.3585 28.8121 19.3845C28.5519 19.4365 28.2917 19.4755 28.0576 19.7095C28.0186 19.7485 28.0316 19.7745 28.0836 19.7745C28.1356 19.7745 28.4478 19.8135 28.5649 19.8135L28.5389 19.8265ZM31.973 22.3877C31.973 22.3877 32.038 22.3357 32.064 22.3227C32.09 22.3227 32.116 22.2967 32.103 22.2577C32.103 22.2187 32.103 22.2187 32.09 22.1797C32.09 22.1537 32.09 22.1407 32.09 22.1147C32.077 22.0887 32.064 22.0497 32.09 22.0367C32.116 22.0367 32.1291 22.0627 32.1551 22.0367C32.1811 22.0367 32.1811 22.0107 32.1941 22.0107C32.2071 22.0107 32.2201 22.0237 32.2461 22.0107C32.2721 22.0107 32.3242 21.9847 32.3372 21.9847C32.3372 21.9847 32.3372 22.0237 32.3372 22.0497C32.3242 22.0757 32.1941 22.2577 32.1421 22.3097C32.09 22.3617 32.025 22.4137 31.9339 22.4267C31.9209 22.4267 31.8949 22.4267 31.8689 22.4267C31.8949 22.4007 31.9339 22.3877 31.973 22.3617V22.3877Z" fill="#fff"/>
<path id="Vector_9" d="M41.8592 18.2276L27.4075 3.78345L12.9558 18.2276L27.4075 32.6718L41.8592 18.2276ZM27.4075 4.92754L28.8254 6.34466V18.2276H30.3863V7.90479L31.8041 9.32191V18.2406H33.3651V10.882L34.7829 12.2992V18.2406H36.3439V13.8593L37.7617 15.2764V18.2536H39.3227V16.8365L40.7405 18.2536L27.4335 31.5537L26.0157 30.1366V18.2536H24.4547V28.5765L23.0369 27.1594V18.2406H21.4759V25.5993L20.0581 24.1821V18.2406H18.4971V22.622L17.0793 21.2049V18.2276H15.5184V19.6448L14.1005 18.2276L27.4075 4.92754Z" fill="#fff"/>
<path id="Vector_10" d="M3.38207 55.4626H5.09911V55.9047C5.09911 56.9578 4.34465 57.6988 3.36907 57.6988C2.77071 57.6988 2.32844 57.4128 2.06828 57.0878C1.73008 56.6587 1.63902 56.4247 1.63902 54.6956C1.63902 52.9664 1.73008 52.7324 2.06828 52.3034C2.32844 51.9653 2.77071 51.6923 3.36907 51.6923C4.17555 51.6923 4.77391 52.2644 4.98204 52.9144H6.33485C6.07469 51.5363 4.96903 50.4182 3.36907 50.4182C2.04227 50.4182 1.13172 51.1983 0.728477 51.9393C0.455313 52.4334 0.364258 52.6804 0.364258 54.7086C0.364258 56.7367 0.455313 56.9838 0.728477 57.4778C1.13172 58.2059 2.04227 58.9989 3.36907 58.9989C5.04707 58.9989 6.37387 57.6728 6.37387 56.0087V54.2925H3.38207V55.5016V55.4626Z" fill="#fff"/>
<path id="Vector_11" d="M9.35269 53.5255H9.32667V52.8885H8.11694V58.895H9.32667V55.2807C9.32667 54.4096 9.91202 54.0196 10.4974 54.0196C10.8096 54.0196 11.0047 54.0976 11.2909 54.3186L12.1624 53.2785C11.7982 52.9925 11.3949 52.8105 10.9006 52.8105C10.2632 52.8105 9.71691 53.0445 9.33968 53.5255H9.35269Z" fill="#fff"/>
<path id="Vector_12" d="M14.7388 52.8233C13.8413 52.8233 13.1779 53.0573 12.7096 53.6944L13.6592 54.4224C13.8673 54.0844 14.1665 53.9544 14.7908 53.9544C15.6493 53.9544 16.0266 54.1624 16.0266 54.7215V55.3455H14.3616C13.0738 55.3455 12.4104 56.1646 12.4104 57.1267C12.4104 58.1667 13.1909 58.9598 14.5307 58.9598C15.3502 58.9598 15.7664 58.7648 16.0136 58.3618H16.0396V58.8948H17.2493V54.7995C17.2493 53.3173 16.2347 52.8233 14.7518 52.8233H14.7388ZM16.0266 56.7886C16.0266 57.7247 15.6884 57.8287 14.6738 57.8287C13.8543 57.8287 13.5421 57.4777 13.5421 57.0747C13.5421 56.6326 13.8673 56.3466 14.5827 56.3466H16.0266V56.7886Z" fill="#fff"/>
<path id="Vector_13" d="M21.9451 52.8233C21.3077 52.8233 20.7614 53.0573 20.3842 53.5384H20.3582V52.9013H19.1484V58.9078H20.3582V55.3325C20.3582 54.5134 20.8655 54.0454 21.5549 54.0454C22.2443 54.0454 22.7386 54.5134 22.7386 55.3325V58.9078H23.9483V54.9165C23.9483 53.5514 22.8817 52.8363 21.9451 52.8363V52.8233Z" fill="#fff"/>
<path id="Vector_14" d="M28.0452 52.8233C27.1087 52.8233 26.5493 53.2263 26.2241 53.5904C25.7688 54.0974 25.5737 54.5915 25.5737 55.8916C25.5737 57.1917 25.7688 57.6857 26.2241 58.2057C26.5623 58.5698 27.1087 58.9728 28.0452 58.9728C28.9818 58.9728 29.5411 58.5698 29.8663 58.2057C30.3346 57.6987 30.5167 57.2047 30.5167 55.8916C30.5167 54.5784 30.3216 54.0974 29.8663 53.5904C29.5411 53.2263 28.9818 52.8233 28.0452 52.8233ZM29.0208 57.3217C28.8387 57.5687 28.4615 57.7637 28.0452 57.7637C27.629 57.7637 27.2517 57.5687 27.0696 57.3217C26.8485 56.9966 26.7705 56.7626 26.7705 55.8916C26.7705 55.0205 26.8355 54.7865 27.0696 54.4744C27.2517 54.2274 27.629 54.0324 28.0452 54.0324C28.4615 54.0324 28.8387 54.2274 29.0208 54.4744C29.2419 54.7995 29.32 55.0335 29.32 55.9046C29.32 56.7756 29.2549 57.0096 29.0208 57.3217Z" fill="#fff"/>
<path id="Vector_15" d="M33.3528 57.3478V50.4702H32.1431V57.4388C32.1431 58.5179 32.8065 58.8949 33.678 58.8949H34.2113V57.7638H33.7951C33.4959 57.7638 33.3398 57.6208 33.3398 57.3478H33.3528Z" fill="#fff"/>
<path id="Vector_16" d="M36.7739 57.3478V50.4702H35.5642V57.4388C35.5642 58.5179 36.2276 58.8949 37.0991 58.8949H37.6325V57.7638H37.2162C36.917 57.7638 36.7609 57.6208 36.7609 57.3478H36.7739Z" fill="#fff"/>
<path id="Vector_17" d="M41.1429 52.8233C39.9852 52.8233 38.6714 53.5774 38.6714 55.9176C38.6714 58.3748 40.1022 58.9728 41.338 58.9728C42.1445 58.9728 42.9119 58.6868 43.5103 57.9977L42.6388 57.2567C42.2876 57.6207 41.7803 57.8417 41.325 57.8417C40.4925 57.8417 39.8941 57.3477 39.8941 56.3596H43.6404V55.3585C43.6404 53.8114 42.4957 52.8233 41.1689 52.8233H41.1429ZM39.8811 55.3585C39.9071 54.4484 40.4405 53.9674 41.1429 53.9674C41.8453 53.9674 42.3786 54.4484 42.4046 55.3585H39.8681H39.8811Z" fill="#fff"/>
<path id="Vector_18" d="M46.4765 53.5255H46.4505V52.8885H45.2407V58.895H46.4505V55.2807C46.4505 54.4096 47.0358 54.0196 47.6212 54.0196C47.9333 54.0196 48.1285 54.0976 48.4146 54.3186L49.2862 53.2785C48.9219 52.9925 48.5187 52.8105 48.0244 52.8105C47.387 52.8105 46.8407 53.0445 46.4635 53.5255H46.4765Z" fill="#fff"/>
<path id="Vector_19" d="M52.9422 55.3195L51.9406 55.2545C51.3423 55.2025 51.1471 54.9425 51.1471 54.6825C51.1471 54.2664 51.4073 53.9544 52.1748 53.9544C52.8252 53.9544 53.3064 54.1754 53.7877 54.5134L54.5292 53.6424C53.9308 53.1483 53.2284 52.8233 52.1748 52.8233C50.913 52.8233 49.9374 53.4474 49.9374 54.6695C49.9374 55.6965 50.6659 56.2946 51.6675 56.3726L52.7341 56.4636C53.1504 56.5026 53.4625 56.6326 53.4625 57.0617C53.4625 57.5687 52.9682 57.8287 52.2788 57.8287C51.4723 57.8287 50.9 57.5687 50.3797 57.0617L49.5342 57.8937C50.3016 58.6218 51.1992 58.9728 52.1748 58.9728C53.5666 58.9728 54.6593 58.2968 54.6593 57.1267C54.6593 56.1646 54.165 55.4105 52.9162 55.3325L52.9422 55.3195Z" fill="#fff"/>
<path id="Vector_20" d="M2.0032 44.7887H5.20313L5.85352 46.6739H7.20633L4.13649 38.2492H3.06985L0 46.6739H1.35281L2.0032 44.7887ZM3.59016 39.9653H3.61617L4.83891 43.6447H2.38043L3.60317 39.9653H3.59016Z" fill="#fff"/>
<path id="Vector_21" d="M9.02732 47.4279V40.6804H7.81759V47.3369C7.81759 47.7919 7.55743 47.974 7.14118 47.974H6.80298V49.1051H7.27126C8.28587 49.1051 9.02732 48.429 9.02732 47.4279Z" fill="#fff"/>
<path id="Vector_22" d="M9.02833 38.2492H7.8186V39.4583H9.02833V38.2492Z" fill="#fff"/>
<path id="Vector_23" d="M12.3976 46.7519C13.0219 46.7519 13.5683 46.5178 13.9455 46.0368H13.9715V46.6739H15.1812V40.6674H13.9715V44.2427C13.9715 45.0617 13.4642 45.5298 12.7878 45.5298C12.1114 45.5298 11.5911 45.0617 11.5911 44.2427V40.6674H10.3813V44.6587C10.3813 46.0238 11.448 46.7389 12.3976 46.7389V46.7519Z" fill="#fff"/>
<path id="Vector_24" d="M20.0069 43.0984V46.6737H21.2166V42.6824C21.2166 41.3173 20.15 40.6022 19.2134 40.6022C18.576 40.6022 18.0297 40.8363 17.6525 41.3173H17.6265V40.6802H16.4167V46.6867H17.6265V43.1114C17.6265 42.2924 18.1338 41.8243 18.8232 41.8243C19.5126 41.8243 20.0069 42.2924 20.0069 43.1114V43.0984Z" fill="#fff"/>
<path id="Vector_25" d="M23.7263 38.8472H22.5166V40.6674H21.9182V41.5905H22.5166V45.1918C22.5166 46.1408 23.1279 46.6739 23.9734 46.6739H24.5978V45.5428H24.1425C23.8434 45.5428 23.7133 45.4258 23.7133 45.0877V41.5905H24.5848V40.6674H23.7133V38.8472H23.7263Z" fill="#fff"/>
<path id="Vector_26" d="M28.5269 46.1407H28.5529V46.6737H29.7627V42.5784C29.7627 41.0963 28.7481 40.6022 27.2652 40.6022C26.3676 40.6022 25.7042 40.8363 25.2359 41.4733L26.1855 42.2014C26.3936 41.8633 26.6928 41.7333 27.3172 41.7333C28.1757 41.7333 28.5529 41.9283 28.5529 42.5004V43.1244H26.8879C25.6002 43.1244 24.9368 43.9435 24.9368 44.9056C24.9368 45.9457 25.7172 46.7387 27.057 46.7387C27.8765 46.7387 28.2928 46.5437 28.5399 46.1407H28.5269ZM26.0684 44.8536C26.0684 44.4115 26.4067 44.1255 27.1091 44.1255H28.5529V44.5676C28.5529 45.5036 28.2147 45.6077 27.2001 45.6077C26.3806 45.6077 26.0684 45.2566 26.0684 44.8536Z" fill="#fff"/>
<path id="Vector_27" d="M39.4528 46.6737V42.6824C39.4528 41.3173 38.3862 40.6022 37.4496 40.6022C36.6301 40.6022 36.0577 40.8363 35.5504 41.3823C35.1212 40.9403 34.6919 40.6022 33.8594 40.6022C33.222 40.6022 32.6757 40.8363 32.2985 41.3173H32.2725V40.6802H31.0627V46.6867H32.2725V43.1114C32.2725 42.2924 32.7798 41.8243 33.4692 41.8243C34.1586 41.8243 34.6529 42.2924 34.6529 43.1114V46.6867H35.8626V43.1114C35.8626 42.2924 36.3699 41.8243 37.0594 41.8243C37.7488 41.8243 38.2431 42.2924 38.2431 43.1114V46.6867H39.4528V46.6737Z" fill="#fff"/>
<path id="Vector_28" d="M44.4216 45.0356C44.0704 45.3996 43.5631 45.6206 43.1078 45.6206C42.2753 45.6206 41.6769 45.1266 41.6769 44.1385H45.4232V43.1374C45.4232 41.5903 44.2785 40.6022 42.9517 40.6022C41.794 40.6022 40.4802 41.3563 40.4802 43.6965C40.4802 46.1537 41.9111 46.7517 43.1468 46.7517C43.9533 46.7517 44.7208 46.4657 45.3191 45.7767L44.4476 45.0356H44.4216ZM42.9387 41.7463C43.6541 41.7463 44.1744 42.2274 44.2005 43.1374H41.6639C41.6899 42.2274 42.2233 41.7463 42.9257 41.7463H42.9387Z" fill="#fff"/>
<path id="Vector_29" d="M47.5576 43.0984C47.5576 42.2794 48.0649 41.8113 48.7543 41.8113C49.4438 41.8113 49.9381 42.2794 49.9381 43.0984V46.6737H51.1478V42.6824C51.1478 41.3173 50.0811 40.6022 49.1446 40.6022C48.5072 40.6022 47.9609 40.8363 47.5836 41.3173H47.5576V40.6802H46.3479V46.6867H47.5576V43.1114V43.0984Z" fill="#fff"/>
<path id="Vector_30" d="M52.4471 45.1918C52.4471 46.1408 53.0584 46.6739 53.9039 46.6739H54.5283V45.5428H54.073C53.7739 45.5428 53.6438 45.4258 53.6438 45.0877V41.5905H54.5153V40.6674H53.6438V38.8472H52.4341V40.6674H51.8357V41.5905H52.4341V45.1918H52.4471Z" fill="#fff"/>
</g>
</svg>
