<svg viewBox="1 214.183 1306 950" fill="none" xmlns="http://www.w3.org/2000/svg">
<g opacity="0.16">
<path d="M757.813 693C757.813 750.351 711.334 796.843 654 796.843C596.666 796.843 550.187 750.351 550.187 693C550.187 635.649 596.666 589.157 654 589.157C711.334 589.157 757.813 635.649 757.813 693Z" stroke="#002E6D" stroke-width="2"/>
<mask id="path-2-inside-1_545_632" fill="white">
<path fill-rule="evenodd" clip-rule="evenodd" d="M0 995.798H92.6861H93.5522V995.796C260.117 995.329 394.999 860.12 394.999 693.399C394.999 526.677 260.117 391.468 93.5522 391.001V391H92.6861H0V995.798Z"/>
</mask>
<path d="M0 995.798H-2V997.798H0V995.798ZM93.5522 995.798V997.798H95.5522V995.798H93.5522ZM93.5522 995.796L93.5466 993.796L91.5522 993.802V995.796H93.5522ZM93.5522 391.001H91.5522V392.996L93.5466 393.001L93.5522 391.001ZM93.5522 391H95.5522V389H93.5522V391ZM0 391V389H-2V391H0ZM92.6861 993.798H0V997.798H92.6861V993.798ZM93.5522 993.798H92.6861V997.798H93.5522V993.798ZM91.5522 995.796V995.798H95.5522V995.796H91.5522ZM392.999 693.399C392.999 859.018 259.008 993.332 93.5466 993.796L93.5579 997.796C261.225 997.326 396.999 861.222 396.999 693.399H392.999ZM93.5466 393.001C259.008 393.465 392.999 527.78 392.999 693.399H396.999C396.999 525.575 261.225 389.472 93.5579 389.001L93.5466 393.001ZM91.5522 391V391.001H95.5522V391H91.5522ZM92.6861 393H93.5522V389H92.6861V393ZM0 393H92.6861V389H0V393ZM-2 391V995.798H2V391H-2Z" fill="#002E6D" mask="url(#path-2-inside-1_545_632)"/>
<path d="M393.999 693.005C393.999 750.356 347.52 796.848 290.185 796.848C232.851 796.848 186.372 750.356 186.372 693.005C186.372 635.654 232.851 589.162 290.185 589.162C347.52 589.162 393.999 635.654 393.999 693.005Z" stroke="#002E6D" stroke-width="2"/>
<rect x="1" y="589.162" width="294.249" height="207.686" stroke="#002E6D" stroke-width="2"/>
<mask id="path-6-inside-2_545_632" fill="white">
<path fill-rule="evenodd" clip-rule="evenodd" d="M1308 391.202L1215.51 391.202L1215.31 391.202L1215.12 391.202L1214.45 391.202L1214.45 391.204C1047.88 391.671 913.001 526.88 913.001 693.601C913.001 860.322 1047.88 995.531 1214.45 995.999L1214.45 996L1308 996L1308 391.202Z"/>
</mask>
<path d="M1215.51 391.202L1215.51 393.202L1215.51 393.202L1215.51 391.202ZM1308 391.202L1310 391.202L1310 389.202L1308 389.202L1308 391.202ZM1215.31 391.202L1215.31 389.202L1215.31 389.202L1215.31 391.202ZM1215.12 391.202L1215.12 393.202L1215.12 393.202L1215.12 391.202ZM1214.45 391.202L1214.45 389.202L1212.45 389.202L1212.45 391.202L1214.45 391.202ZM1214.45 391.204L1214.45 393.204L1216.45 393.198L1216.45 391.204L1214.45 391.204ZM1214.45 995.999L1216.45 995.999L1216.45 994.004L1214.45 993.999L1214.45 995.999ZM1214.45 996L1212.45 996L1212.45 998L1214.45 998L1214.45 996ZM1308 996L1308 998L1310 998L1310 996L1308 996ZM1215.51 393.202L1308 393.202L1308 389.202L1215.51 389.202L1215.51 393.202ZM1215.31 393.202L1215.51 393.202L1215.51 389.202L1215.31 389.202L1215.31 393.202ZM1215.12 393.202L1215.31 393.202L1215.31 389.202L1215.12 389.202L1215.12 393.202ZM1214.45 393.202L1215.12 393.202L1215.12 389.202L1214.45 389.202L1214.45 393.202ZM1216.45 391.204L1216.45 391.202L1212.45 391.202L1212.45 391.204L1216.45 391.204ZM915.001 693.601C915.001 527.982 1048.99 393.668 1214.45 393.204L1214.44 389.204C1046.78 389.674 911.001 525.778 911.001 693.601L915.001 693.601ZM1214.45 993.999C1048.99 993.535 915.001 859.22 915.001 693.601L911.001 693.601C911.001 861.425 1046.78 997.528 1214.44 997.999L1214.45 993.999ZM1216.45 996L1216.45 995.999L1212.45 995.999L1212.45 996L1216.45 996ZM1308 994L1214.45 994L1214.45 998L1308 998L1308 994ZM1310 996L1310 391.202L1306 391.202L1306 996L1310 996Z" fill="#002E6D" mask="url(#path-6-inside-2_545_632)"/>
 <path d="M914.001 693.601C914.001 636.25 960.48 589.758 1017.81 589.758C1075.15 589.758 1121.63 636.25 1121.63 693.601C1121.63 750.953 1075.15 797.444 1017.81 797.444C960.48 797.444 914.001 750.952 914.001 693.601Z" stroke="#002E6D" stroke-width="2"/>
  <rect x="1013.751" y="589.162" width="294.249" height="207.686" stroke="#002E6D" stroke-width="2"/>
<rect x="1" y="589.162" width="294.249" height="207.686" stroke="#002E6D" stroke-width="2"/>
<path d="M654 214.183L654 1165" stroke="#002E6D" stroke-width="2"/>
<rect x="1" y="214.183" width="1306" height="950" stroke="#002E6D" stroke-width="2"/>
</g>
</svg>
