<svg xmlns="http://www.w3.org/2000/svg" width="27" height="27" viewBox="0 0 32 32" fill="none">
<path fill-rule="evenodd" clip-rule="evenodd" d="M15.8367 24.4043C16.0373 24.3823 16.2332 24.2995 16.3948 24.1544C16.4349 24.1185 16.4713 24.0801 16.5042 24.0396L29.8789 9.09631C30.2472 8.68478 30.2122 8.05259 29.8007 7.68426C29.3891 7.31593 28.757 7.35095 28.3886 7.76247L15.7251 21.9112L2.86823 7.58705C2.49932 7.17604 1.86708 7.14191 1.45607 7.51082C1.04506 7.87973 1.01093 8.51197 1.37984 8.92298L14.9446 24.0358C14.9786 24.0781 15.0165 24.1182 15.0583 24.1556C15.2791 24.3533 15.5636 24.4348 15.8367 24.4043Z" fill="white"/>
</svg>