<svg xmlns="http://www.w3.org/2000/svg"  width="68" height="120" viewBox="0 0 68 120" fill="none">
  <g clip-path="url(#clip0_258_3160)">
    <path d="M52.6048 91.9955L49.7165 85.0088L46.7656 92.2215L49.6395 99.2995L52.6048 91.9955Z" fill="#002E6D"/>
    <path d="M46.766 92.2215L42.6694 85.3262L38.8857 92.1061L42.655 99.0062L46.766 92.2215Z" fill="#002E6D"/>
    <path d="M38.8857 47.522V44.7764H67.9997V0H38.8857V119.769H67.9997V47.522H38.8857ZM46.5927 77.8875L49.5628 84.3789L52.5955 77.522L53.8663 85.129L52.6581 92.1013L52.6485 92.0821L53.8663 99.6987L52.5955 106.926L49.5724 99.7756L46.6215 106.935L42.5491 99.7275L38.8857 106.556V48.628L43.9547 66.8569L38.9772 77.6855L42.7609 84.4655L46.5927 77.8827L43.9547 66.7078L52.5955 48.4789V68.5206L66.3775 48.4116L52.5955 77.3057V68.5831L46.5975 77.8779L46.5927 77.8875Z" fill="#002E6D"/>
    <path d="M38.8855 44.7764H9.77148V47.522H38.8855V44.7764Z" fill="#002E6D"/>
    <path d="M33.9416 66.4723L25.1804 48.7002L24.959 68.487L11.3984 48.7002L25.0071 77.2288L23.9192 85.2012L25.0986 92.0148L23.9192 99.4054L25.19 106.628L28.1746 99.5641L31.0773 106.628L35.0872 99.5353L38.8902 106.628V92.1783L35.1931 98.939L31.1303 91.784L35.0198 85.2397L38.8902 92.1735V48.7002L33.9512 66.4771L33.9416 66.4723ZM30.8655 77.6471L28.1361 84.2684L25.1756 77.2048V69.2323L30.8655 77.6471ZM28.1072 84.9512L31.1158 91.784L28.0783 98.8957L25.3296 92.1302L28.1072 84.9512ZM38.688 77.7337L35.0921 84.3694L31.2747 77.7193L34.0282 67.3715" fill="#002E6D"/>
    <path d="M17.5898 118.389C17.3924 118.721 17.1324 119.019 16.8292 119.255C16.5259 119.5 16.1745 119.683 15.799 119.793C15.3947 119.909 14.971 119.966 14.5474 119.962C14.0083 119.971 13.4739 119.889 12.9637 119.721C12.0394 119.409 11.3125 118.692 10.9852 117.774C10.8023 117.259 10.7156 116.721 10.7301 116.177C10.7204 115.644 10.8071 115.11 10.9852 114.61C11.3125 113.687 12.0394 112.96 12.9637 112.629C13.4739 112.456 14.0083 112.369 14.5474 112.379C14.9518 112.379 15.3561 112.432 15.7461 112.542C16.1071 112.648 16.4489 112.821 16.7522 113.047C17.0554 113.263 17.3154 113.533 17.5127 113.85C17.7245 114.187 17.8786 114.552 17.9652 114.937H17.0025C16.8677 114.422 16.55 113.98 16.1119 113.682C15.8857 113.533 15.645 113.417 15.385 113.34C15.1155 113.259 14.8314 113.22 14.5474 113.22C14.1334 113.211 13.7243 113.283 13.3392 113.427C12.9974 113.562 12.6845 113.768 12.4293 114.033C12.1742 114.307 11.9768 114.629 11.8517 114.98C11.7169 115.365 11.6543 115.773 11.6591 116.177C11.6543 116.591 11.7169 117.004 11.8517 117.399C11.972 117.745 12.1646 118.067 12.4149 118.336C12.67 118.601 12.9829 118.808 13.3343 118.933C13.7194 119.077 14.1286 119.154 14.5378 119.154C14.8363 119.154 15.1347 119.115 15.4187 119.029C15.6883 118.947 15.9482 118.827 16.1793 118.668C16.4056 118.505 16.5933 118.298 16.7425 118.062C16.8966 117.812 17.0073 117.533 17.0699 117.245H18.0326C17.9412 117.649 17.7919 118.038 17.5849 118.394L17.5898 118.389Z" fill="#002E6D"/>
    <path d="M20.9635 113.225C21.1705 113.023 21.4015 112.85 21.6519 112.706C21.9022 112.566 22.1669 112.46 22.4461 112.393C22.7446 112.321 23.0479 112.287 23.3559 112.287C23.8662 112.278 24.3765 112.374 24.853 112.561C25.3007 112.744 25.7051 113.023 26.0372 113.369C26.3742 113.715 26.6438 114.124 26.8219 114.576C27.0048 115.052 27.0963 115.562 27.0915 116.076C27.0963 116.596 27.0096 117.11 26.8363 117.596C26.6679 118.053 26.4031 118.466 26.0613 118.817C25.734 119.168 25.3248 119.442 24.8771 119.611C24.0973 119.889 23.2549 119.942 22.4461 119.774C22.1717 119.712 21.907 119.615 21.6615 119.486C21.416 119.341 21.1897 119.168 20.9875 118.966C20.7613 118.745 20.5543 118.5 20.3714 118.24V119.688H19.4375V109.806H20.3714V113.917C20.5495 113.667 20.7517 113.437 20.9683 113.22L20.9635 113.225ZM23.2356 119.024C24.0203 119.053 24.776 118.755 25.3248 118.192C25.5944 117.918 25.8014 117.596 25.9458 117.24C26.2202 116.495 26.2202 115.672 25.9458 114.922C25.8062 114.567 25.5944 114.244 25.3248 113.975C25.06 113.706 24.7423 113.489 24.3909 113.35C24.0251 113.201 23.6303 113.129 23.2356 113.138C22.8553 113.138 22.475 113.211 22.1236 113.36C21.7674 113.518 21.4449 113.744 21.1753 114.028C20.9009 114.302 20.6795 114.629 20.5302 114.99C20.3858 115.341 20.3136 115.721 20.3184 116.1C20.3184 116.49 20.3858 116.875 20.5302 117.235C20.6795 117.591 20.9009 117.918 21.1753 118.187C21.44 118.471 21.7626 118.697 22.1236 118.846C22.475 118.99 22.8553 119.062 23.2356 119.058V119.024Z" fill="#002E6D"/>
    <path d="M37.0618 117.663C36.8692 118.053 36.6285 118.408 36.3349 118.726C36.0701 119.019 35.7572 119.26 35.4106 119.452C35.0544 119.644 34.6741 119.784 34.2794 119.865C33.8413 119.957 33.3984 120 32.9508 120C32.2576 120.005 31.5692 119.885 30.9193 119.639C30.3032 119.399 29.7496 119.029 29.2922 118.553C28.8157 118.086 28.445 117.529 28.2043 116.913C27.9588 116.264 27.8337 115.581 27.8433 114.889C27.8385 114.191 27.9588 113.499 28.2043 112.845C28.445 112.215 28.8061 111.643 29.273 111.157C29.7255 110.667 30.2791 110.282 30.8953 110.027C31.5403 109.772 32.2239 109.652 32.9171 109.667C33.4947 109.662 34.0676 109.729 34.6308 109.873C35.1266 109.998 35.5984 110.205 36.0316 110.479C36.4456 110.753 36.8018 111.109 37.0762 111.523C37.3746 111.984 37.5913 112.489 37.7212 113.023H36.744C36.5996 112.643 36.4023 112.282 36.1616 111.956C35.9353 111.657 35.6561 111.403 35.3384 111.201C35.0207 110.999 34.6693 110.845 34.3034 110.749C33.8991 110.643 33.4803 110.59 33.0615 110.595C32.4838 110.585 31.9062 110.686 31.3622 110.893C30.8519 111.09 30.3946 111.398 30.0191 111.797C29.6292 112.182 29.3259 112.653 29.1382 113.167C28.9408 113.715 28.8398 114.292 28.8494 114.879C28.8398 115.47 28.9408 116.062 29.1382 116.62C29.3259 117.129 29.6292 117.596 30.0191 117.976C30.4091 118.356 30.876 118.654 31.3911 118.841C31.9543 119.043 32.5512 119.139 33.1481 119.13C33.6536 119.135 34.159 119.053 34.6356 118.889C35.0881 118.726 35.5021 118.471 35.8583 118.144C36.2145 117.827 36.4985 117.432 36.6863 116.99C36.874 116.538 36.9655 116.052 36.9607 115.562H33.7161V114.716H37.8945V119.788H37.1195L37.0762 117.678L37.0618 117.663Z" fill="#002E6D"/>
    <path d="M43.3962 27.7497C47.3243 23.4461 51.7867 22.4459 54.415 22.2632C53.7411 18.5511 51.7723 15.1948 48.8647 12.7905L29.2051 38.1263C31.9441 40.117 35.2464 41.1845 38.6354 41.1749C39.2178 41.1749 39.8003 41.1412 40.378 41.0787C40.2239 39.3236 39.8436 31.6349 43.3962 27.7448V27.7497Z" fill="#E15100"/>
    <path d="M41.4421 40.92C45.2836 40.2324 48.7447 38.1744 51.1709 35.121L43.5265 29.322C41.0667 33.0293 41.3266 39.2948 41.4373 40.9152L41.4421 40.92Z" fill="#E15100"/>
    <path d="M33.566 21.4747L25.5847 15.7815C23.6158 18.5031 22.5616 21.7776 22.5664 25.134C22.5664 25.6677 22.5953 26.1966 22.6483 26.7256C26.8603 26.5669 30.8125 24.6627 33.566 21.4747Z" fill="#E15100"/>
    <path d="M38.616 9.10231C38.1587 9.10231 37.711 9.12635 37.2585 9.16482C37.5329 11.9393 37.7447 18.0557 34.9142 21.5658C30.4373 27.1292 24.8485 27.7736 22.793 27.8168C23.4332 31.5915 25.4021 35.0103 28.3481 37.4578L48.0029 12.1268C45.2735 10.1554 41.9905 9.0975 38.6208 9.10231H38.616Z" fill="#E15100"/>
    <path d="M36.176 9.28027C32.2865 9.87652 28.7531 11.8817 26.2451 14.9158L34.2553 20.6282C36.6141 17.4162 36.4215 11.8576 36.176 9.28027Z" fill="#E15100"/>
    <path d="M54.5739 23.3596C50.5784 23.6481 46.8574 25.485 44.1953 28.4806L51.8108 34.2508C53.6737 31.5725 54.6654 28.3893 54.6606 25.1339C54.6606 24.5425 54.6317 23.9511 54.5691 23.3644L54.5739 23.3596Z" fill="#E15100"/>
    <path d="M33.5665 4.45752C29.0607 5.90968 25.0941 8.66973 22.1625 12.3867C19.1394 16.2238 17.5798 20.6091 17.185 25.4609C16.0393 21.5324 16.28 17.6471 18.1045 14.0071C21.2527 7.72247 26.4709 4.54407 33.5665 4.45752Z" fill="#E15100"/>
    <path d="M18.0182 6.42896C15.6979 8.96302 13.9553 11.8241 13.2814 15.2236C12.6074 18.5559 12.8578 22.0084 14.0083 25.2108C11.4954 22.7104 10.3449 19.157 10.913 15.6612C11.5388 11.3432 13.9024 8.16962 18.0182 6.42896Z" fill="#E15100"/>
    <path d="M6.56611 10.0737C5.5889 15.7044 7.03305 20.6043 10.9178 24.903C5.61297 23.773 3.30234 15.8247 6.56611 10.0737Z" fill="#E15100"/>
    <path d="M7.55263 24.6195C2.11301 24.7974 -1.10262 19.0032 0.346342 15.2766C1.23208 19.6331 3.59567 22.7297 7.55263 24.6195Z" fill="#E15100"/>
    <path d="M67.9948 107.945H57.5488V106.277H67.9948V107.945Z" fill="#E15100"/>
    <path d="M67.9948 111.845H57.5488V110.177H67.9948V111.845Z" fill="#E15100"/>
    <path d="M67.9948 116.052H57.5488V114.384H67.9948V116.052Z" fill="#E15100"/>
    <path d="M67.9948 119.769H57.5488V118.101H67.9948V119.769Z" fill="#E15100"/>
  </g>
  <defs>
    <clipPath id="clip0_258_3160">
      <rect width="68" height="120" fill="white"/>
    </clipPath>
  </defs>
</svg>