<svg width="80" height="30" viewBox="0 0 80 30" fill="none" xmlns="http://www.w3.org/2000/svg">
<g clip-path="url(#clip0_2341_1662)">
<path d="M32.286 29.0139C27.945 29.0837 23.1857 26.5159 21.5984 22.394C21.0283 20.9123 20.9498 19.6167 21.8311 18.1324C23.9231 14.6105 25.8478 10.9876 27.7515 7.36221C28.2588 6.39767 28.9309 6.02014 29.9481 5.82878C36.1876 4.66254 41.9119 8.11471 43.4338 14.0157C45.0786 20.3899 41.8256 26.6219 35.8581 28.4036C34.7101 28.7475 33.4758 28.8173 32.2834 29.0139H32.286Z" fill="#fff"/>
<path d="M0.00878906 5.94509C3.08144 5.94509 6.10963 5.92699 9.13783 5.97612C9.41502 5.98129 9.76805 6.37693 9.94848 6.67173C12.6263 11.1014 15.304 15.5336 17.9086 20.0072C18.1727 20.4597 18.1518 21.2872 17.9165 21.7759C17.0221 23.6378 16.0101 25.4479 14.9902 27.2477C14.0148 28.9699 12.7047 29.0526 11.7476 27.3614C7.82247 20.4183 3.96532 13.4338 0.0872397 6.46227C0.0297092 6.35883 0.0480144 6.21661 0.00878906 5.94509Z" fill="#fff"/>
<path d="M79.8037 6.13893C78.9303 8.3628 78.0908 10.5194 77.2383 12.6709C75.3477 17.4315 73.4413 22.1844 71.5664 26.9502C71.1663 27.9639 70.4837 28.45 69.3854 28.4371C68.3943 28.4241 67.6124 28.1526 67.215 27.1415C64.5215 20.3381 61.8123 13.5423 59.1136 6.74403C59.0378 6.55268 59.0064 6.34581 58.9541 6.13893C60.1962 5.69158 60.7637 6.11049 61.2161 7.27673C63.5696 13.3355 66.0173 19.358 68.444 25.3857C68.6401 25.8719 68.9461 26.3141 69.3488 27.0433C69.7306 26.3658 70 25.9934 70.1647 25.5822C72.6254 19.4718 75.1019 13.3691 77.4998 7.23535C77.9261 6.14152 78.47 5.70192 79.8037 6.14152V6.13893Z" fill="#fff"/>
<path d="M47.4349 0.144915C48.5306 -0.214524 48.9568 0.0828538 48.928 1.10945C48.8862 2.68685 48.9176 4.26941 48.9176 5.97868C51.1351 5.97868 53.1304 6.02006 55.1256 5.96058C56.1141 5.93214 56.5717 6.29934 56.6005 7.45523C54.634 7.45523 52.6963 7.45523 50.7586 7.45523C48.9307 7.45523 48.9254 7.45781 48.9228 9.19812C48.9176 13.2011 48.915 17.204 48.9254 21.207C48.9254 21.8069 48.9777 22.412 49.0823 23.0042C49.4406 25.0729 50.9181 26.3555 53.0205 26.4279C54.1084 26.4641 55.1989 26.4874 56.2841 26.4357C57.351 26.3839 57.7485 26.7563 57.3066 28.0156C55.4708 27.9251 53.5436 28.0105 51.6869 27.695C49.1555 27.2631 47.5421 25.4841 47.4872 22.6447C47.3381 15.1664 47.4375 7.68279 47.4375 0.144915H47.4349Z" fill="#fff"/>
</g>
<defs>
<clipPath id="clip0_2341_1662">
<rect width="79.7948" height="29.0163" fill="white" transform="translate(0.00878906)"/>
</clipPath>
</defs>
</svg>
